<svg width="500" height="500" viewBox="0 0 500 500" fill="none" xmlns="http://www.w3.org/2000/svg">
<g clip-path="url(#clip0_1_36)">
<path d="M390.854 262.503C390.854 341.337 324.796 405.273 243.275 405.273C161.754 405.273 95.697 341.337 95.697 262.503C95.697 183.668 161.754 119.732 243.275 119.732C324.796 119.732 390.854 183.668 390.854 262.503Z" stroke="black"/>
<mask id="path-2-inside-1_1_36" fill="white">
<path fill-rule="evenodd" clip-rule="evenodd" d="M261.891 122.667C262.824 122.273 262.669 120.9 261.667 120.759C254.85 119.801 247.882 119.305 240.795 119.305C160.211 119.305 94.8852 183.449 94.8852 262.575C94.8852 341.701 160.211 405.846 240.795 405.846C254.646 405.846 268.047 403.951 280.742 400.41C281.708 400.141 281.692 398.777 280.73 398.494C214.647 379.035 166.917 323.137 166.917 257.215C166.917 197.741 205.766 146.427 261.891 122.667Z"/>
</mask>
<path d="M280.742 400.41L279.937 397.52L280.742 400.41ZM280.73 398.494L281.577 395.616L280.73 398.494ZM261.667 120.759L261.249 123.73L261.667 120.759ZM261.891 122.667L263.061 125.43L261.891 122.667ZM240.795 122.305C247.741 122.305 254.57 122.791 261.249 123.73L262.084 117.789C255.13 116.81 248.022 116.305 240.795 116.305V122.305ZM97.8852 262.575C97.8852 185.157 161.816 122.305 240.795 122.305V116.305C158.606 116.305 91.8852 181.741 91.8852 262.575H97.8852ZM240.795 402.846C161.816 402.846 97.8852 339.993 97.8852 262.575H91.8852C91.8852 343.41 158.606 408.846 240.795 408.846V402.846ZM279.937 397.52C267.501 400.988 254.372 402.846 240.795 402.846V408.846C254.921 408.846 268.593 406.913 281.548 403.3L279.937 397.52ZM281.577 395.616C216.553 376.469 169.917 321.592 169.917 257.215H163.917C163.917 324.681 212.741 381.601 279.882 401.372L281.577 395.616ZM169.917 257.215C169.917 199.127 207.868 148.794 263.061 125.43L260.722 119.905C203.663 144.059 163.917 196.355 163.917 257.215H169.917ZM281.548 403.3C285.642 402.158 285.207 396.685 281.577 395.616L279.882 401.372C278.954 401.098 278.466 400.24 278.459 399.484C278.452 398.711 278.953 397.795 279.937 397.52L281.548 403.3ZM261.249 123.73C260.23 123.587 259.613 122.734 259.524 121.962C259.437 121.208 259.821 120.286 260.722 119.905L263.061 125.43C266.583 123.939 266.328 118.385 262.084 117.789L261.249 123.73Z" fill="black" mask="url(#path-2-inside-1_1_36)"/>
<path d="M269.101 220.551C269.11 220.553 269.118 220.555 269.126 220.558C270.022 224.593 271.39 229.719 273.363 234.683C275.352 239.689 277.995 244.632 281.47 248.108C284.945 251.583 289.888 254.226 294.895 256.215C299.858 258.187 304.984 259.555 309.02 260.452C309.022 260.46 309.024 260.468 309.027 260.477C309.039 260.527 309.046 260.587 309.046 260.652C309.046 260.717 309.039 260.777 309.027 260.827C309.024 260.836 309.022 260.845 309.02 260.852C304.984 261.749 299.858 263.117 294.895 265.089C289.888 267.078 284.945 269.721 281.47 273.197C277.995 276.672 275.352 281.615 273.363 286.621C271.39 291.585 270.022 296.711 269.126 300.747C269.118 300.749 269.11 300.751 269.101 300.753C269.05 300.765 268.99 300.773 268.925 300.773C268.861 300.773 268.801 300.765 268.75 300.753C268.741 300.751 268.733 300.749 268.725 300.747C267.829 296.711 266.461 291.585 264.488 286.621C262.499 281.615 259.856 276.672 256.381 273.197C252.906 269.721 247.963 267.078 242.956 265.089C237.992 263.117 232.866 261.749 228.831 260.852C228.829 260.845 228.826 260.836 228.824 260.827C228.812 260.777 228.805 260.717 228.805 260.652C228.805 260.587 228.812 260.527 228.824 260.477C228.826 260.468 228.829 260.46 228.831 260.452C232.866 259.555 237.992 258.187 242.956 256.215C247.963 254.226 252.906 251.583 256.381 248.108C259.856 244.632 262.499 239.689 264.488 234.683C266.461 229.719 267.829 224.593 268.725 220.558C268.733 220.555 268.741 220.553 268.75 220.551C268.801 220.539 268.861 220.531 268.925 220.531C268.99 220.531 269.05 220.539 269.101 220.551Z" stroke="black" stroke-width="2.5"/>
<path fill-rule="evenodd" clip-rule="evenodd" d="M267.984 97.2984L270.112 83.3503L269.14 83.0924L266.995 97.1475L267.984 97.2984ZM282.806 0.147951L271.123 76.7231L270.151 76.4652L281.817 -0.00287247L282.806 0.147951ZM223.164 97.2229C223.663 97.1995 223.663 97.1993 223.663 97.1988L223.663 97.1967L223.662 97.1883L223.661 97.1545L223.655 97.0207L223.63 96.4945L223.603 95.9062L223.584 95.4772L223.538 94.4655C223.459 92.7005 223.345 90.1398 223.209 86.9572C222.936 80.5921 222.573 71.7397 222.209 61.7907C222.028 56.8487 221.848 51.6366 221.679 46.3248L220.67 46.0571C220.842 51.4749 221.026 56.7917 221.21 61.8272C221.573 71.7788 221.937 80.6333 222.21 87C222.346 90.1834 222.46 92.7449 222.539 94.5105C222.579 95.3934 222.61 96.0773 222.631 96.5405L222.656 97.0671L222.662 97.2011L222.664 97.235L222.664 97.2435L222.664 97.2456C222.664 97.2461 222.664 97.2464 223.164 97.2229ZM220.755 0.072539C220.755 11.3669 221.057 25.457 221.465 39.3728L220.457 39.1053C220.053 25.2799 219.755 11.299 219.755 0.072539H220.755ZM343.992 25.0579L349.255 13.5551L348.346 13.139L343.011 24.7977L343.992 25.0579ZM341.178 31.2069L340.198 30.9468L306.928 103.652L307.838 104.068L341.178 31.2069ZM175.265 79.4301L156.463 13.2104L155.501 13.4836L174.453 80.2301L175.265 79.4301ZM178.346 90.2806L181.535 101.511L180.573 101.784L177.534 91.0805L178.346 90.2806ZM341.036 126.272L356.58 104.23L355.549 103.957L340.219 125.696L341.036 126.272ZM400.184 42.3965L360.676 98.4216L359.646 98.1481L399.367 41.8202L400.184 42.3965ZM132.83 105.782L107.681 48.5445L106.766 48.9467L132.068 106.533L132.83 105.782ZM137.088 115.473L136.326 116.224L140.703 126.185L141.618 125.783L137.088 115.473ZM392.392 133.823L439.982 95.5961L439.356 94.8164L392.135 132.747L392.392 133.823ZM386.642 138.441L386.385 137.365L362.478 156.568L363.104 157.348L386.642 138.441ZM87.6182 133.872L52.1862 94.87L51.446 95.5425L86.8068 134.466L87.6182 133.872ZM108.286 156.622L92.125 138.833L91.3135 139.427L107.546 157.294L108.286 156.622ZM391.807 186.176L448.511 160.776L447.861 159.971L391.398 185.263L391.807 186.176ZM475.335 148.76L457.022 156.964L456.372 156.159L474.926 147.848L475.335 148.76ZM90.4168 185.276L51.621 165.007L50.8133 165.713L89.9538 186.163L90.4168 185.276ZM18.803 147.861L45.2829 161.696L44.4753 162.402L18.34 148.747L18.803 147.861ZM454.876 217.252L497.441 204.092L497.146 203.137L453.054 216.769L454.876 217.252ZM442.872 220.964L441.05 220.48L404.753 231.702L405.048 232.658L442.872 220.964ZM61.2301 224.932L3.23321 203.146L2.88156 204.083L60.9491 225.895L61.2301 224.932ZM67.4871 227.282L67.2061 228.245L78.928 232.648L79.2796 231.712L67.4871 227.282ZM413.817 272.501L429.695 270.856L429.461 269.875L413.714 271.506L413.817 272.501ZM497.345 263.847L446.072 269.159L445.837 268.178L497.242 262.852L497.345 263.847ZM79.1603 271.507L36.6967 266.674L36.9964 267.715L79.0472 272.5L79.1603 271.507ZM3.11392 262.853L29.5256 265.858L29.8254 266.899L3.00085 263.846L3.11392 262.853ZM435.015 320.357L486.117 330.213L486.306 329.231L434.794 319.296L435.015 320.357ZM427.921 318.988L427.699 317.927L404.995 313.548L404.806 314.53L427.921 318.988ZM42.7758 320.234L2.94717 329.234L3.1676 330.21L44.8628 320.787L42.7758 320.234ZM72.3446 313.552L56.8126 317.062L58.8995 317.615L72.5651 314.527L72.3446 313.552ZM382.493 345.449L398.039 354.184L398.712 353.416L382.982 344.577L382.493 345.449ZM461.587 389.893L403.976 357.521L404.649 356.752L462.077 389.021L461.587 389.893ZM98.79 353.436L61.8555 375.98L61.616 377.297L99.311 354.29L98.79 353.436ZM40.4741 389.03L54.2363 380.63L53.9968 381.948L40.995 389.884L40.4741 389.03ZM413.533 431.916L421.623 438.517L422.255 437.743L414.286 431.24L413.533 431.916ZM408.307 427.65L409.06 426.974L354.242 382.237L353.609 383.011L408.307 427.65ZM96.2446 414.874L75.8221 437.798L76.5687 438.463L96.5127 416.077L96.2446 414.874ZM101.706 408.744L101.974 409.946L126.02 382.957L125.273 382.291L101.706 408.744ZM320.297 407.281L353.997 447.73L354.395 446.644L321.065 406.641L320.297 407.281ZM379.445 478.274L358.928 453.648L359.325 452.563L380.213 477.633L379.445 478.274ZM158.44 406.745L133.792 458.307L134.775 458.567L159.342 407.176L158.44 406.745ZM124.503 477.738L130.866 464.426L131.85 464.687L125.405 478.169L124.503 477.738ZM286.096 442.48L304.011 486.99L304.939 486.616L287.302 442.801L286.096 442.48ZM282.988 434.761L278.107 422.634L279.035 422.261L284.195 435.081L282.988 434.761ZM196.373 451.389L193.161 500.045L194.158 500.111L197.358 451.65L196.373 451.389ZM196.82 444.612L198.285 422.415L199.283 422.48L197.805 444.874L196.82 444.612ZM242.614 429.142L246.671 464.388L247.607 463.773L243.607 429.028L242.614 429.142ZM247.525 471.803L250.787 500.135L251.78 500.02L248.461 471.188L247.525 471.803Z" fill="black"/>
</g>
<defs>
<clipPath id="clip0_1_36">
<rect width="500" height="500" fill="white"/>
</clipPath>
</defs>
</svg>
